# Blender 3.3.1
# www.blender.org
o Cylinder.001
v -0.110873 6.808708 2.426034
v -0.162545 7.695042 3.019313
v -1.421399 6.679632 2.426034
v -1.663773 7.547184 3.019313
v -2.681563 6.297366 2.426034
v -3.107310 7.109291 3.019312
v -3.842936 5.676599 2.426033
v -4.437681 6.398192 3.019311
v -4.860888 4.841188 2.426033
v -5.603761 5.441216 3.019311
v -5.696300 3.823235 2.426033
v -6.560739 4.275136 3.019311
v -6.317066 2.661862 2.426032
v -7.271836 2.944764 3.019310
v -6.699332 1.401699 2.426031
v -7.709729 1.501227 3.019310
v -6.828408 0.091173 2.426031
v -7.857587 -0.000001 3.019309
v -6.699333 -1.219353 2.426030
v -7.709729 -1.501228 3.019308
v -6.317067 -2.479516 2.426030
v -7.271837 -2.944765 3.019307
v -5.696300 -3.640890 2.426029
v -6.560739 -4.275136 3.019307
v -4.860888 -4.658842 2.426028
v -5.603761 -5.441216 3.019305
v -3.842936 -5.494254 2.426028
v -4.437681 -6.398194 3.019305
v -2.681561 -6.115021 2.426027
v -3.107309 -7.109293 3.019305
v -1.421398 -6.497287 2.426027
v -1.663771 -7.547184 3.019305
v -0.110871 -6.626363 2.426027
v -0.162542 -7.695043 3.019305
v 1.199656 -6.497286 2.426027
v 1.338686 -7.547184 3.019305
v 2.459819 -6.115019 2.426027
v 2.782223 -7.109291 3.019305
v 3.621193 -5.494252 2.426028
v 4.112595 -6.398191 3.019305
v 4.639145 -4.658839 2.426028
v 5.278675 -5.441214 3.019305
v 5.474556 -3.640886 2.426029
v 6.235651 -4.275133 3.019307
v 6.095323 -2.479512 2.426030
v 6.946749 -2.944760 3.019307
v 6.477587 -1.219348 2.426030
v 7.384640 -1.501223 3.019308
v 6.606662 0.091179 2.426031
v 7.532497 0.000006 3.019309
v 6.477585 1.401705 2.426031
v 7.384637 1.501235 3.019310
v 6.095317 2.661869 2.426032
v 6.946743 2.944772 3.019310
v 5.474549 3.823242 2.426033
v 6.235643 4.275144 3.019311
v 4.639136 4.841193 2.426033
v 5.278664 5.441223 3.019311
v 3.621182 5.676605 2.426033
v 4.112582 6.398199 3.019311
v 2.459807 6.297370 2.426034
v 2.782210 7.109295 3.019312
v 1.199643 6.679634 2.426034
v 1.338672 7.547184 3.019313
vn -0.0545 0.5532 -0.8312
vn -0.1597 0.5265 -0.8351
vn -0.2561 0.4792 -0.8395
vn -0.3399 0.4141 -0.8444
vn -0.4079 0.3348 -0.8494
vn -0.4583 0.2450 -0.8544
vn -0.4898 0.1486 -0.8591
vn -0.5021 0.0495 -0.8634
vn -0.4956 -0.0488 -0.8672
vn -0.4712 -0.1429 -0.8704
vn -0.4303 -0.2300 -0.8729
vn -0.3747 -0.3075 -0.8747
vn -0.3063 -0.3732 -0.8757
vn -0.2274 -0.4254 -0.8760
vn -0.1403 -0.4624 -0.8755
vn -0.0476 -0.4831 -0.8743
vn 0.0479 -0.4866 -0.8723
vn 0.1433 -0.4724 -0.8696
vn 0.2355 -0.4406 -0.8663
vn 0.3212 -0.3914 -0.8624
vn 0.3971 -0.3259 -0.8579
vn 0.4601 -0.2459 -0.8531
vn 0.5070 -0.1538 -0.8481
vn 0.5351 -0.0527 -0.8431
vn 0.5425 0.0534 -0.8384
vn 0.5279 0.1602 -0.8340
vn 0.4914 0.2626 -0.8304
vn 0.4338 0.3560 -0.8277
vn 0.3575 0.4357 -0.8260
vn 0.2660 0.4976 -0.8256
vn -0.0000 -0.0000 1.0000
vn 0.1635 0.5389 -0.8264
vn 0.0549 0.5576 -0.8283
vn -0.0000 -0.0000 -1.0000
vt 1.000000 0.500000
vt 0.000000 0.500000
vt 0.750000 0.490000
vt 1.000000 1.000000
vt 0.250000 0.490000
vt 0.000000 1.000000
vt 0.968750 0.500000
vt 0.796822 0.485388
vt 0.968750 1.000000
vt 0.296822 0.485388
vt 0.937500 0.500000
vt 0.841844 0.471731
vt 0.937500 1.000000
vt 0.341844 0.471731
vt 0.906250 0.500000
vt 0.883337 0.449553
vt 0.906250 1.000000
vt 0.383337 0.449553
vt 0.875000 0.500000
vt 0.919706 0.419706
vt 0.875000 1.000000
vt 0.419706 0.419706
vt 0.843750 0.500000
vt 0.949553 0.383337
vt 0.843750 1.000000
vt 0.449553 0.383337
vt 0.812500 0.500000
vt 0.971731 0.341844
vt 0.812500 1.000000
vt 0.471731 0.341844
vt 0.781250 0.500000
vt 0.985388 0.296822
vt 0.781250 1.000000
vt 0.485388 0.296822
vt 0.750000 0.500000
vt 0.990000 0.250000
vt 0.750000 1.000000
vt 0.490000 0.250000
vt 0.718750 0.500000
vt 0.985388 0.203178
vt 0.718750 1.000000
vt 0.485388 0.203178
vt 0.687500 0.500000
vt 0.971731 0.158156
vt 0.687500 1.000000
vt 0.471731 0.158156
vt 0.656250 0.500000
vt 0.949553 0.116663
vt 0.656250 1.000000
vt 0.449553 0.116663
vt 0.625000 0.500000
vt 0.919706 0.080294
vt 0.625000 1.000000
vt 0.419706 0.080294
vt 0.593750 0.500000
vt 0.883337 0.050447
vt 0.593750 1.000000
vt 0.383337 0.050447
vt 0.562500 0.500000
vt 0.841844 0.028269
vt 0.562500 1.000000
vt 0.341844 0.028269
vt 0.531250 0.500000
vt 0.796822 0.014612
vt 0.531250 1.000000
vt 0.296822 0.014612
vt 0.500000 0.500000
vt 0.750000 0.010000
vt 0.500000 1.000000
vt 0.250000 0.010000
vt 0.468750 0.500000
vt 0.703178 0.014612
vt 0.468750 1.000000
vt 0.203178 0.014612
vt 0.437500 0.500000
vt 0.658156 0.028269
vt 0.437500 1.000000
vt 0.158156 0.028269
vt 0.406250 0.500000
vt 0.616663 0.050447
vt 0.406250 1.000000
vt 0.116663 0.050447
vt 0.375000 0.500000
vt 0.580294 0.080294
vt 0.375000 1.000000
vt 0.080294 0.080294
vt 0.343750 0.500000
vt 0.550447 0.116663
vt 0.343750 1.000000
vt 0.050447 0.116663
vt 0.312500 0.500000
vt 0.528269 0.158156
vt 0.312500 1.000000
vt 0.028269 0.158156
vt 0.281250 0.500000
vt 0.514611 0.203179
vt 0.281250 1.000000
vt 0.014611 0.203179
vt 0.250000 0.500000
vt 0.510000 0.250000
vt 0.250000 1.000000
vt 0.010000 0.250000
vt 0.218750 0.500000
vt 0.514612 0.296822
vt 0.218750 1.000000
vt 0.014612 0.296822
vt 0.187500 0.500000
vt 0.528269 0.341844
vt 0.187500 1.000000
vt 0.028269 0.341844
vt 0.156250 0.500000
vt 0.550447 0.383337
vt 0.156250 1.000000
vt 0.050447 0.383337
vt 0.125000 0.500000
vt 0.580295 0.419706
vt 0.125000 1.000000
vt 0.080295 0.419706
vt 0.093750 0.500000
vt 0.616663 0.449553
vt 0.093750 1.000000
vt 0.116663 0.449553
vt 0.062500 0.500000
vt 0.658156 0.471731
vt 0.158156 0.471731
vt 0.062500 1.000000
vt 0.031250 0.500000
vt 0.703179 0.485389
vt 0.203179 0.485389
vt 0.031250 1.000000
s 0
f 3/7/1 2/4/1 1/1/1
f 5/11/2 4/9/2 3/7/2
f 7/15/3 6/13/3 5/11/3
f 9/19/4 8/17/4 7/15/4
f 11/23/5 10/21/5 9/19/5
f 13/27/6 12/25/6 11/23/6
f 15/31/7 14/29/7 13/27/7
f 17/35/8 16/33/8 15/31/8
f 19/39/9 18/37/9 17/35/9
f 21/43/10 20/41/10 19/39/10
f 23/47/11 22/45/11 21/43/11
f 25/51/12 24/49/12 23/47/12
f 27/55/13 26/53/13 25/51/13
f 27/55/14 30/61/14 28/57/14
f 29/59/15 32/65/15 30/61/15
f 31/63/16 34/69/16 32/65/16
f 33/67/17 36/73/17 34/69/17
f 35/71/18 38/77/18 36/73/18
f 37/75/19 40/81/19 38/77/19
f 39/79/20 42/85/20 40/81/20
f 41/83/21 44/89/21 42/85/21
f 43/87/22 46/93/22 44/89/22
f 45/91/23 48/97/23 46/93/23
f 47/95/24 50/101/24 48/97/24
f 49/99/25 52/105/25 50/101/25
f 51/103/26 54/109/26 52/105/26
f 53/107/27 56/113/27 54/109/27
f 55/111/28 58/117/28 56/113/28
f 57/115/29 60/121/29 58/117/29
f 61/123/30 60/121/30 59/119/30
f 34/70/31 50/102/31 2/5/31
f 63/127/32 62/126/32 61/123/32
f 1/2/33 64/130/33 63/127/33
f 35/72/34 19/40/34 3/8/34
f 3/7/1 4/9/1 2/4/1
f 5/11/2 6/13/2 4/9/2
f 7/15/3 8/17/3 6/13/3
f 9/19/4 10/21/4 8/17/4
f 11/23/5 12/25/5 10/21/5
f 13/27/6 14/29/6 12/25/6
f 15/31/7 16/33/7 14/29/7
f 17/35/8 18/37/8 16/33/8
f 19/39/9 20/41/9 18/37/9
f 21/43/10 22/45/10 20/41/10
f 23/47/11 24/49/11 22/45/11
f 25/51/12 26/53/12 24/49/12
f 27/55/13 28/57/13 26/53/13
f 27/55/14 29/59/14 30/61/14
f 29/59/15 31/63/15 32/65/15
f 31/63/16 33/67/16 34/69/16
f 33/67/17 35/71/17 36/73/17
f 35/71/18 37/75/18 38/77/18
f 37/75/19 39/79/19 40/81/19
f 39/79/20 41/83/20 42/85/20
f 41/83/21 43/87/21 44/89/21
f 43/87/22 45/91/22 46/93/22
f 45/91/23 47/95/23 48/97/23
f 47/95/24 49/99/24 50/101/24
f 49/99/25 51/103/25 52/105/25
f 51/103/26 53/107/26 54/109/26
f 53/107/27 55/111/27 56/113/27
f 55/111/28 57/115/28 58/117/28
f 57/115/29 59/119/29 60/121/29
f 61/123/30 62/126/30 60/121/30
f 2/5/31 4/10/31 6/14/31
f 6/14/31 8/18/31 10/22/31
f 10/22/31 12/26/31 14/30/31
f 14/30/31 16/34/31 18/38/31
f 18/38/31 20/42/31 22/46/31
f 22/46/31 24/50/31 26/54/31
f 26/54/31 28/58/31 30/62/31
f 30/62/31 32/66/31 34/70/31
f 34/70/31 36/74/31 38/78/31
f 38/78/31 40/82/31 42/86/31
f 42/86/31 44/90/31 46/94/31
f 46/94/31 48/98/31 50/102/31
f 50/102/31 52/106/31 54/110/31
f 54/110/31 56/114/31 58/118/31
f 58/118/31 60/122/31 62/125/31
f 62/125/31 64/129/31 2/5/31
f 2/5/31 6/14/31 10/22/31
f 10/22/31 14/30/31 18/38/31
f 18/38/31 22/46/31 26/54/31
f 26/54/31 30/62/31 34/70/31
f 34/70/31 38/78/31 42/86/31
f 42/86/31 46/94/31 50/102/31
f 50/102/31 54/110/31 58/118/31
f 58/118/31 62/125/31 2/5/31
f 2/5/31 10/22/31 18/38/31
f 18/38/31 26/54/31 34/70/31
f 34/70/31 42/86/31 50/102/31
f 50/102/31 58/118/31 2/5/31
f 2/5/31 18/38/31 34/70/31
f 63/127/32 64/130/32 62/126/32
f 1/2/33 2/6/33 64/130/33
f 3/8/34 1/3/34 63/128/34
f 63/128/34 61/124/34 59/120/34
f 59/120/34 57/116/34 55/112/34
f 55/112/34 53/108/34 51/104/34
f 51/104/34 49/100/34 47/96/34
f 47/96/34 45/92/34 43/88/34
f 43/88/34 41/84/34 39/80/34
f 39/80/34 37/76/34 35/72/34
f 35/72/34 33/68/34 31/64/34
f 31/64/34 29/60/34 27/56/34
f 27/56/34 25/52/34 23/48/34
f 23/48/34 21/44/34 19/40/34
f 19/40/34 17/36/34 15/32/34
f 15/32/34 13/28/34 11/24/34
f 11/24/34 9/20/34 7/16/34
f 7/16/34 5/12/34 3/8/34
f 3/8/34 63/128/34 59/120/34
f 59/120/34 55/112/34 51/104/34
f 51/104/34 47/96/34 43/88/34
f 43/88/34 39/80/34 35/72/34
f 35/72/34 31/64/34 27/56/34
f 27/56/34 23/48/34 19/40/34
f 19/40/34 15/32/34 11/24/34
f 11/24/34 7/16/34 3/8/34
f 3/8/34 59/120/34 51/104/34
f 51/104/34 43/88/34 35/72/34
f 35/72/34 27/56/34 19/40/34
f 19/40/34 11/24/34 3/8/34
f 3/8/34 51/104/34 35/72/34
