# Blender 3.3.1
# www.blender.org
o Manche_Circle
v 30.715771 31.600241 45.859142
v 30.396902 31.491501 46.184196
v 30.152811 31.396255 46.527981
v 30.007389 31.323826 46.856846
v 29.974873 31.281303 47.138599
v 30.058443 31.272850 47.345661
v 30.249922 31.299295 47.457764
v 30.530565 31.358047 47.463928
v 30.872902 31.443357 47.363560
v 31.243420 31.546875 47.166477
v 31.605854 31.658464 46.891972
v 31.924721 31.767204 46.566917
v 32.168812 31.862450 46.223133
v 32.314236 31.934879 45.894268
v 32.346752 31.977402 45.612514
v 32.263180 31.985855 45.405453
v 32.071701 31.959410 45.293354
v 31.791056 31.900658 45.287186
v 31.448721 31.815346 45.387554
v 31.078201 31.711830 45.584641
v 29.913433 34.305649 47.823334
v 29.338842 37.203747 48.124180
v 29.049778 40.140228 47.950527
v 28.925070 40.114120 47.947788
v 29.077913 37.149120 48.118446
v 29.636110 34.247589 47.817238
v 31.291094 34.709961 46.936935
v 30.635061 37.584160 47.290184
v 29.669292 40.322041 47.551929
v 29.527599 40.273720 47.696373
v 30.338593 37.483059 47.592400
v 30.975998 34.602509 47.258144
v 31.625547 34.926025 45.789211
v 30.949743 37.787449 46.210308
v 29.819691 40.419201 47.035812
v 29.856829 40.415443 47.127823
v 31.027445 37.779591 46.402824
v 31.708130 34.917671 45.993824
v 29.364315 34.229809 47.501850
v 28.822186 37.132393 47.821701
v 28.802847 40.106125 47.805962
v 28.817297 40.125019 47.680763
v 28.852417 37.171928 47.559742
v 29.396446 34.271828 47.223431
v 30.454590 34.655243 45.966278
v 29.848007 37.532677 46.376907
v 29.293129 40.297432 47.115437
v 29.457775 40.343433 47.027859
v 30.192499 37.628922 46.193668
v 30.820724 34.757534 45.771526
v 29.781351 34.437519 46.558739
v 29.214569 37.327824 46.934341
v 28.990383 40.199528 47.381859
v 29.132076 40.247849 47.237415
v 29.511038 37.428925 46.632126
v 30.096447 34.544975 46.237534
v 30.251719 34.389946 47.724152
v 29.657129 37.283062 48.030861
v 29.201900 40.178135 47.905930
v 31.532297 34.804081 46.597218
v 30.862005 37.672714 46.970547
v 29.777760 40.364365 47.399162
v 31.436333 34.899895 45.678436
v 30.771715 37.762863 46.106083
v 29.734606 40.407448 46.986000
v 29.446898 34.221458 47.706463
v 28.899885 37.124535 48.014217
v 28.839983 40.102367 47.897972
v 30.617853 34.492241 47.529400
v 30.001619 37.379307 47.847622
v 29.366547 40.224136 47.818352
v 31.675999 34.875652 46.272243
v 30.997211 37.740059 46.664783
v 29.842379 40.396549 47.253025
v 29.540148 34.343399 46.898457
v 28.987623 37.239269 47.253979
v 28.881916 40.157204 47.534626
v 31.159012 34.841835 45.672344
v 30.510786 37.708237 46.100346
v 29.609898 40.381340 46.983261
vn -0.3855 0.0380 -0.9219
vn -0.1528 0.1040 -0.9828
vn -0.1515 0.0963 -0.9838
vn -0.3867 0.0442 -0.9212
vn -0.1643 0.1837 -0.9692
vn -0.3968 0.1087 -0.9115
vn -0.1933 0.2514 -0.9484
vn -0.8518 -0.1128 -0.5116
vn -0.9465 -0.1527 -0.2843
vn -0.8532 -0.1066 -0.5106
vn -0.9604 -0.0738 -0.2686
vn -0.8656 -0.0430 -0.4989
vn -0.9624 0.0026 -0.2716
vn -0.8685 0.0187 -0.4953
vn 0.9433 0.1679 0.2865
vn 0.9659 0.2347 -0.1098
vn 0.9416 0.1756 0.2872
vn 0.9367 0.3351 -0.1018
vn 0.9220 0.2547 0.2915
vn 0.8776 0.4743 -0.0702
vn 0.8640 0.3952 0.3120
vn 0.6517 0.0452 0.7572
vn 0.5350 0.0153 0.8447
vn 0.5363 0.0099 0.8440
vn 0.6505 0.0505 0.7578
vn 0.5210 0.0713 0.8506
vn 0.6378 0.1043 0.7631
vn 0.4740 0.0828 0.8766
vn 0.0941 0.1478 0.9845
vn 0.3616 0.0604 0.9304
vn -0.2433 -0.1672 0.9554
vn -0.7331 -0.2186 0.6441
vn -0.7307 -0.2302 0.6427
vn -0.2458 -0.1572 0.9565
vn -0.7507 -0.1020 0.6527
vn -0.2710 -0.0555 0.9610
vn -0.7578 0.0149 0.6523
vn 0.2394 0.1871 -0.9527
vn 0.2412 0.1771 -0.9542
vn 0.2216 0.2883 -0.9315
vn 0.1783 0.3768 -0.9090
vn -0.7538 -0.0745 -0.6529
vn -0.7549 -0.0691 -0.6522
vn -0.7660 -0.0129 -0.6428
vn -0.7710 0.0411 -0.6355
vn 0.8505 0.1189 0.5123
vn 0.8493 0.1251 0.5130
vn 0.8346 0.1892 0.5174
vn 0.7997 0.2925 0.5243
vn 0.3827 -0.0258 0.9235
vn 0.3842 -0.0319 0.9227
vn 0.3657 0.0376 0.9300
vn -0.6528 -0.0401 -0.7565
vn -0.5385 0.0009 -0.8426
vn -0.5374 -0.0045 -0.8433
vn -0.6539 -0.0349 -0.7558
vn -0.5483 0.0575 -0.8343
vn -0.6640 0.0192 -0.7475
vn -0.5598 0.1094 -0.8214
vn -0.9702 -0.2147 0.1119
vn -0.9722 -0.2047 0.1136
vn -0.9861 -0.1023 0.1312
vn -0.9926 -0.0019 0.1214
vn 0.7257 0.2531 -0.6397
vn 0.7283 0.2416 -0.6413
vn 0.6948 0.3654 -0.6194
vn 0.6546 0.4717 -0.5908
vn 0.7526 0.0799 0.6536
vn 0.7515 0.0853 0.6542
vn 0.7386 0.1417 0.6590
vn 0.7150 0.2254 0.6618
vn 0.1479 -0.0811 0.9857
vn 0.1498 -0.0887 0.9847
vn 0.1260 -0.0027 0.9920
vn -0.6717 0.0701 -0.7375
vn -0.4145 0.1655 -0.8949
vn -0.9449 -0.1603 -0.2856
vn 0.9681 0.2246 -0.1107
vn 0.6163 0.1801 0.7667
vn -0.2909 0.0988 0.9516
vt 0.812400 0.533900
vt 0.800200 0.546100
vt 0.788900 0.557500
vt 0.779200 0.567200
vt 0.961100 0.385300
vt 0.771400 0.575000
vt 0.954800 0.391600
vt 0.948500 0.397900
vt 0.940700 0.405700
vt 0.930900 0.415400
vt 0.919600 0.426800
vt 0.907400 0.439000
vt 0.895100 0.451200
vt 0.883800 0.462500
vt 0.874100 0.472300
vt 0.866200 0.480100
vt 0.859900 0.486500
vt 0.853500 0.492800
vt 0.845700 0.500600
vt 0.836000 0.510400
vt 0.824700 0.521700
vt 0.872000 0.340800
vt 0.791000 0.268300
vt 0.710200 0.199600
vt 0.716700 0.193000
vt 0.798200 0.261100
vt 0.879600 0.333100
vt 0.827400 0.385300
vt 0.749100 0.310200
vt 0.672000 0.237700
vt 0.682200 0.227500
vt 0.760400 0.299000
vt 0.839400 0.373400
vt 0.793300 0.419400
vt 0.717000 0.342400
vt 0.642600 0.267100
vt 0.647900 0.261800
vt 0.722800 0.336600
vt 0.799400 0.413300
vt 0.892000 0.320700
vt 0.706900 0.505800
vt 0.809900 0.249500
vt 0.635700 0.423600
vt 0.727300 0.182500
vt 0.568500 0.341200
vt 0.575100 0.334600
vt 0.642900 0.416400
vt 0.714600 0.498100
vt 0.759200 0.453500
vt 0.684900 0.374500
vt 0.613300 0.296500
vt 0.622700 0.287000
vt 0.695200 0.364100
vt 0.770300 0.442500
vt 0.735300 0.477400
vt 0.662400 0.397000
vt 0.592800 0.317000
vt 0.603000 0.306700
vt 0.673600 0.385700
vt 0.747300 0.465400
vt 0.862400 0.350300
vt 0.782100 0.277300
vt 0.702000 0.207700
vt 0.816400 0.396300
vt 0.738800 0.320600
vt 0.662500 0.247200
vt 0.787200 0.425500
vt 0.711200 0.348100
vt 0.637400 0.272400
vt 0.885800 0.326900
vt 0.804100 0.255300
vt 0.722000 0.187700
vt 0.851300 0.361400
vt 0.771600 0.287700
vt 0.692500 0.217200
vt 0.807000 0.405800
vt 0.729900 0.329500
vt 0.654400 0.255300
vt 0.724200 0.488500
vt 0.651900 0.407400
vt 0.583300 0.326500
vt 0.779700 0.433000
vt 0.704100 0.355200
vt 0.630900 0.278900
s 1
f 19/20/1 78/82/2 18/19/3
f 50/54/4 79/83/5 78/82/2
f 49/53/6 80/84/7 79/83/5
f 3/3/8 44/48/9 75/79/10
f 75/79/10 43/47/11 76/80/12
f 76/80/12 42/46/13 77/81/14
f 14/15/15 38/39/16 72/76/17
f 72/76/17 37/38/18 73/77/19
f 73/77/19 36/37/20 74/78/21
f 11/12/22 69/73/23 10/11/24
f 32/33/25 70/74/26 69/73/23
f 31/32/27 71/75/28 70/74/26
f 71/75/28 23/24/29 59/63/30
f 7/8/31 66/70/32 6/7/33
f 26/27/34 67/71/35 66/70/32
f 25/26/36 68/72/37 67/71/35
f 18/19/3 63/67/38 17/18/39
f 78/82/2 64/68/40 63/67/38
f 79/83/5 65/69/41 64/68/40
f 2/2/42 75/79/10 51/55/43
f 51/55/43 76/80/12 52/56/44
f 52/56/44 77/81/14 53/57/45
f 13/14/46 72/76/17 60/64/47
f 60/64/47 73/77/19 61/65/48
f 61/65/48 74/78/21 62/66/49
f 10/11/24 57/61/50 9/10/51
f 69/73/23 58/62/52 57/61/50
f 70/74/26 59/63/30 58/62/52
f 1/1/53 45/49/54 20/21/55
f 56/60/56 46/50/57 45/49/54
f 55/59/58 47/51/59 46/50/57
f 5/5/60 66/70/32 39/40/61
f 39/40/61 67/71/35 40/42/62
f 40/42/62 68/72/37 41/44/63
f 17/18/39 33/34/64 16/17/65
f 63/67/38 34/35/66 33/34/64
f 64/68/40 35/36/67 34/35/66
f 12/13/68 60/64/47 27/28/69
f 27/28/69 61/65/48 28/29/70
f 28/29/70 62/66/49 29/30/71
f 9/10/51 21/22/72 8/9/73
f 57/61/50 22/23/74 21/22/72
f 58/62/52 23/24/29 22/23/74
f 1/1/53 51/55/43 56/60/56
f 56/60/56 52/56/44 55/59/58
f 55/59/58 53/57/45 54/58/75
f 20/21/55 50/54/4 19/20/1
f 45/49/54 49/53/6 50/54/4
f 46/50/57 48/52/76 49/53/6
f 4/4/77 39/41/61 44/48/9
f 44/48/9 40/43/62 43/47/11
f 43/47/11 41/45/63 42/46/13
f 15/16/78 33/34/64 38/39/16
f 38/39/16 34/35/66 37/38/18
f 37/38/18 35/36/67 36/37/20
f 11/12/22 27/28/69 32/33/25
f 32/33/25 28/29/70 31/32/27
f 31/32/27 29/30/71 30/31/79
f 8/9/73 26/27/34 7/8/31
f 21/22/72 25/26/36 26/27/34
f 22/23/74 24/25/80 25/26/36
f 19/20/1 50/54/4 78/82/2
f 50/54/4 49/53/6 79/83/5
f 49/53/6 48/52/76 80/84/7
f 3/3/8 4/4/77 44/48/9
f 75/79/10 44/48/9 43/47/11
f 76/80/12 43/47/11 42/46/13
f 14/15/15 15/16/78 38/39/16
f 72/76/17 38/39/16 37/38/18
f 73/77/19 37/38/18 36/37/20
f 11/12/22 32/33/25 69/73/23
f 32/33/25 31/32/27 70/74/26
f 31/32/27 30/31/79 71/75/28
f 71/75/28 30/31/79 23/24/29
f 7/8/31 26/27/34 66/70/32
f 26/27/34 25/26/36 67/71/35
f 25/26/36 24/25/80 68/72/37
f 18/19/3 78/82/2 63/67/38
f 78/82/2 79/83/5 64/68/40
f 79/83/5 80/84/7 65/69/41
f 2/2/42 3/3/8 75/79/10
f 51/55/43 75/79/10 76/80/12
f 52/56/44 76/80/12 77/81/14
f 13/14/46 14/15/15 72/76/17
f 60/64/47 72/76/17 73/77/19
f 61/65/48 73/77/19 74/78/21
f 10/11/24 69/73/23 57/61/50
f 69/73/23 70/74/26 58/62/52
f 70/74/26 71/75/28 59/63/30
f 1/1/53 56/60/56 45/49/54
f 56/60/56 55/59/58 46/50/57
f 55/59/58 54/58/75 47/51/59
f 5/5/60 6/7/33 66/70/32
f 39/40/61 66/70/32 67/71/35
f 40/42/62 67/71/35 68/72/37
f 17/18/39 63/67/38 33/34/64
f 63/67/38 64/68/40 34/35/66
f 64/68/40 65/69/41 35/36/67
f 12/13/68 13/14/46 60/64/47
f 27/28/69 60/64/47 61/65/48
f 28/29/70 61/65/48 62/66/49
f 9/10/51 57/61/50 21/22/72
f 57/61/50 58/62/52 22/23/74
f 58/62/52 59/63/30 23/24/29
f 1/1/53 2/2/42 51/55/43
f 56/60/56 51/55/43 52/56/44
f 55/59/58 52/56/44 53/57/45
f 20/21/55 45/49/54 50/54/4
f 45/49/54 46/50/57 49/53/6
f 46/50/57 47/51/59 48/52/76
f 4/4/77 5/6/60 39/41/61
f 44/48/9 39/41/61 40/43/62
f 43/47/11 40/43/62 41/45/63
f 15/16/78 16/17/65 33/34/64
f 38/39/16 33/34/64 34/35/66
f 37/38/18 34/35/66 35/36/67
f 11/12/22 12/13/68 27/28/69
f 32/33/25 27/28/69 28/29/70
f 31/32/27 28/29/70 29/30/71
f 8/9/73 21/22/72 26/27/34
f 21/22/72 22/23/74 25/26/36
f 22/23/74 23/24/29 24/25/80
